<svg viewBox="0 0 512 512" xmlns="http://www.w3.org/2000/svg">
  <rect width="512" height="512" fill="#022c22"/>
  <path d="M256 120C180.88 120 120 180.88 120 256s60.88 136 136 136c25.4 0 49.12-7.1 69.5-19.5-9.6 2.3-19.67 3.5-30 3.5-66.27 0-120-53.73-120-120 0-56.1 38.33-103.18 90.06-116.88C261.64 139.67 258.85 140 256 140c-2.4 0-4.78.14-7.12.4C268.64 127.38 290.7 120 314 120c18.5 0 36.14 4.56 51.78 12.6C348.8 124.5 328.7 120 308 120h-52z" fill="#D4AF37"/>
  <path d="M360 180l-20 40h40l-20-40zM360 220v60h-10l10 20 10-20h-10v-60z" fill="#D4AF37"/>
</svg>
